<?xml version="1.0"?>
<svg xmlns="http://www.w3.org/2000/svg" xmlns:xlink="http://www.w3.org/1999/xlink" xmlns:svgjs="http://svgjs.com/svgjs" version="1.1" width="512" height="512" x="0" y="0" viewBox="0 0 512.014 512.014" style="enable-background:new 0 0 512 512" xml:space="preserve" class=""><g><g xmlns="http://www.w3.org/2000/svg"><path d="m.014 211.969h26.916l68.672 118.331 68.825-118.331h22.891l68.67 118.331 68.825-118.331h22.89l68.672 118.331 68.825-118.331h26.814v-30h-512v30zm95.617 58.612-34.015-58.612h68.105zm160.387 0-34.015-58.612h68.105zm160.386 0-34.015-58.612h68.105z" fill="#db0962" data-original="#000000" style="" class=""/><path d="m.014.028v30h26.916l68.672 118.331 68.825-118.331h22.891l68.671 118.331 68.825-118.331h22.89l68.671 118.331 68.825-118.331h26.814v-30h-512zm95.617 88.612-34.015-58.612h68.105zm160.387 0-34.015-58.612h68.105zm160.386 0-34.014-58.612h68.105z" fill="#db0962" data-original="#000000" style="" class=""/><path d="m0 393.656h26.916l68.671 118.331 68.825-118.331h22.89l68.671 118.331 68.827-118.331h22.89l68.672 118.331 68.825-118.331h26.813v-30h-512zm95.617 58.612-34.015-58.612h68.105zm160.386 0-34.015-58.612h68.105zm160.388 0-34.015-58.612h68.106z" fill="#db0962" data-original="#000000" style="" class=""/></g></g></svg>
