<?xml version="1.0"?>
<svg xmlns="http://www.w3.org/2000/svg" xmlns:xlink="http://www.w3.org/1999/xlink" xmlns:svgjs="http://svgjs.com/svgjs" version="1.1" width="512" height="512" x="0" y="0" viewBox="0 0 48 60" style="enable-background:new 0 0 512 512" xml:space="preserve" class=""><g><g xmlns="http://www.w3.org/2000/svg" id="Page-1" fill="none" fill-rule="evenodd"><g id="028---Book-Accommodation" fill="rgb(0,0,0)" fill-rule="nonzero"><path id="Shape" d="m0 6v48c.00330738 3.3123376 2.68766243 5.9966926 6 6h36c3.3123376-.0033074 5.9966926-2.6876624 6-6v-48c-.0033074-3.31233757-2.6876624-5.99669262-6-6h-36c-3.31233757.00330738-5.99669262 2.68766243-6 6zm2 24h44v20c0 1.6568542-1.3431458 3-3 3h-38c-1.65685425 0-3-1.3431458-3-3zm44-2h-44v-18h44zm-4 30h-36c-2.209139 0-4-1.790861-4-4v-.026c.86038886.6618067 1.91453073 1.0223232 3 1.026h38c1.0854693-.0036768 2.1396111-.3641933 3-1.026v.026c0 2.209139-1.790861 4-4 4zm4-52v2h-44v-2c0-2.209139 1.790861-4 4-4h36c2.209139 0 4 1.790861 4 4z" fill="#db0962" data-original="#000000" style="" class=""/><path id="Shape" d="m25 6h3c.5522847 0 1-.44771525 1-1s-.4477153-1-1-1h-3c-.5522847 0-1 .44771525-1 1s.4477153 1 1 1z" fill="#db0962" data-original="#000000" style="" class=""/><circle id="Oval" cx="21" cy="5" r="1" fill="#db0962" data-original="#000000" style="" class=""/><path id="Shape" d="m12 26c.5522847 0 1-.4477153 1-1v-2h22v2c0 .5522847.4477153 1 1 1s1-.4477153 1-1v-5c-.0052514-1.2667854-.8056491-2.3937454-2-2.816v-2.184c0-1.1045695-.8954305-2-2-2h-6c-1.1045695 0-2 .8954305-2 2v2h-2v-2c0-1.1045695-.8954305-2-2-2h-6c-1.1045695 0-2 .8954305-2 2v2.184c-1.1943509.4222546-1.9947486 1.5492146-2 2.816v5c0 .5522847.4477153 1 1 1zm15-11h6v2h-6zm-12 0h6v2h-6zm-2 5c0-.5522847.4477153-1 1-1h20c.5522847 0 1 .4477153 1 1v1h-22z" fill="#db0962" data-original="#000000" style="" class=""/><path id="Shape" d="m10 47h2c1.1856144.005247 2.2620981-.691231 2.7432243-1.7748484.4811261-1.0836175.2758048-2.3492169-.5232243-3.2251516.7990291-.8759347 1.0043504-2.1415341.5232243-3.2251516-.4811262-1.0836174-1.5576099-1.7800954-2.7432243-1.7748484h-2c-.55228475 0-1 .4477153-1 1v8c0 .5522847.44771525 1 1 1zm2-2h-1v-2h1c.5522847 0 1 .4477153 1 1s-.4477153 1-1 1zm-1-6h1c.5522847 0 1 .4477153 1 1s-.4477153 1-1 1h-1z" fill="#db0962" data-original="#000000" style="" class=""/><path id="Shape" d="m20 47c1.6568542 0 3-1.3431458 3-3v-4c0-1.6568542-1.3431458-3-3-3s-3 1.3431458-3 3v4c0 1.6568542 1.3431458 3 3 3zm-1-7c0-.5522847.4477153-1 1-1s1 .4477153 1 1v4c0 .5522847-.4477153 1-1 1s-1-.4477153-1-1z" fill="#db0962" data-original="#000000" style="" class=""/><path id="Shape" d="m28 47c1.6568542 0 3-1.3431458 3-3v-4c0-1.6568542-1.3431458-3-3-3s-3 1.3431458-3 3v4c0 1.6568542 1.3431458 3 3 3zm-1-7c0-.5522847.4477153-1 1-1s1 .4477153 1 1v4c0 .5522847-.4477153 1-1 1s-1-.4477153-1-1z" fill="#db0962" data-original="#000000" style="" class=""/><path id="Shape" d="m34 47c.5522847 0 1-.4477153 1-1v-1.586l2.293 2.293c.3923789.3789722 1.0160848.3735524 1.4018186-.0121814s.3911536-1.0094397.0121814-1.4018186l-3.293-3.293 3.293-3.293c.3789722-.3923789.3735524-1.0160848-.0121814-1.4018186s-1.0094397-.3911536-1.4018186-.0121814l-2.293 2.293v-1.586c0-.5522847-.4477153-1-1-1s-1 .4477153-1 1v8c0 .5522847.4477153 1 1 1z" fill="#db0962" data-original="#000000" style="" class=""/><path id="Shape" d="m10 51h28c3.3123376-.0033074 5.9966926-2.6876624 6-6v-6c-.0033074-3.3123376-2.6876624-5.9966926-6-6h-28c-3.31233757.0033074-5.99669262 2.6876624-6 6v6c.00330738 3.3123376 2.68766243 5.9966926 6 6zm-4-12c0-2.209139 1.790861-4 4-4h28c2.209139 0 4 1.790861 4 4v6c0 2.209139-1.790861 4-4 4h-28c-2.209139 0-4-1.790861-4-4z" fill="#db0962" data-original="#000000" style="" class=""/></g></g></g></svg>
